<svg xmlns="http://www.w3.org/2000/svg" viewBox="0 0 226.63 207.28">
  <defs>
    <style>
      .cls-1 {
        fill: #0072bc;
      }

      .cls-2 {
        fill: #883f98;
      }

      .cls-3 {
        fill: #fdb913;
      }

      .cls-4 {
        fill: #fff;
      }

      .cls-5 {
        fill: #ed1c24;
      }

      .cls-6 {
        fill: #a6ce39;
      }
    </style>
  </defs>
  <g id="Layer_2" data-name="Layer 2">
    <g id="logo">
      <g>
        <path class="cls-1" d="M81.1,154.47A7.91,7.91,0,0,1,78.24,158a7.68,7.68,0,0,1-2.06,1,7.86,7.86,0,0,1-2.35.36,8.12,8.12,0,0,1-3.07-.62,8,8,0,0,1-3.48-2.87,7.68,7.68,0,0,1-1-2.06,7.86,7.86,0,0,1-.35-2.35,8,8,0,0,1,.61-3.07,7.93,7.93,0,0,1,4.93-4.47,8,8,0,0,1,5.42.27A8,8,0,0,1,80.38,147a8.16,8.16,0,0,1,1,2.06,7.86,7.86,0,0,1,.35,2.35,7.76,7.76,0,0,1-.62,3.07m3-18.34a18.4,18.4,0,1,0,6.67,8.1,18.41,18.41,0,0,0-6.67-8.1"/>
        <path class="cls-2" d="M25.74,136l2.93-23.45a11.8,11.8,0,0,1,3.53.87A11.94,11.94,0,0,1,35.94,116a11.66,11.66,0,0,1,3.44,8.31A11.73,11.73,0,0,1,27.63,136Zm27.15-1.07A27.41,27.41,0,0,0,27.63,96.84H17.78a3.33,3.33,0,0,0-3.3,2.91l-8,63.7a2.93,2.93,0,0,0,2.55,3.28L18.78,168a3,3,0,0,0,3.28-2.56l1.72-13.72h3.85c.75,0,1.48,0,2.21-.09L39,182.42a3,3,0,0,0,3.66,2L52,181.61A2.93,2.93,0,0,0,54,178l-9.53-32.09A26.72,26.72,0,0,0,47,143.64a27.25,27.25,0,0,0,5.87-8.71"/>
        <path class="cls-3" d="M182.12,135.24,167.91,112.5a1.3,1.3,0,0,0-2.34.27L146.3,169.3a2.75,2.75,0,0,0,1.71,3.48l8.65,2.94a2.72,2.72,0,0,0,3.48-1.71l1.48-4.32L170.36,144l10.31,16.49a1.72,1.72,0,0,0,2.91,0l7.31-11.71,22.61,40.7a2.74,2.74,0,0,0,3.73,1.06l8-4.44a2.75,2.75,0,0,0,1.07-3.73l-33.32-60a1.63,1.63,0,0,0-2.79-.07Z"/>
        <path class="cls-4" d="M118.2,4.24a1.58,1.58,0,0,0-2.9,0L86.62,68.78a3.57,3.57,0,0,0,1.81,4.71l10.86,4.83A3.57,3.57,0,0,0,104,76.51l12.75-29.95,21.2,49a3.57,3.57,0,0,0,4.71,1.81l10.87-4.83a3.56,3.56,0,0,0,1.81-4.7Z"/>
        <path class="cls-4" d="M35.85,48.11a6.82,6.82,0,0,1-2.47,3,7,7,0,0,1-1.77.85,6.94,6.94,0,0,1-2,.3H25.16l2.72-13.59h1.71a6.73,6.73,0,0,1,2.64.53,6.85,6.85,0,0,1,3,2.48,6.83,6.83,0,0,1,.62,6.43m8.18-24a25.76,25.76,0,0,0-14.44-4.41H15.85a4.34,4.34,0,0,0-4.27,3.49L.07,80.69a3.57,3.57,0,0,0,2.8,4.2l11.66,2.33a3.58,3.58,0,0,0,4.2-2.8l2.62-13.13h8.24A25.87,25.87,0,0,0,54.25,53.14,25.81,25.81,0,0,0,44,24.06"/>
        <path class="cls-5" d="M74.89,3.17A3.58,3.58,0,0,0,71,0L59.13,1.34A3.56,3.56,0,0,0,56,5.28l10.71,96.44a4,4,0,0,0,4,3.54h43.72a3.57,3.57,0,0,0,3.57-3.57V89.8a3.56,3.56,0,0,0-3.57-3.56H84.12Z"/>
        <path class="cls-6" d="M196.35,29.16V23.21a3.56,3.56,0,0,0-3.57-3.56H180.89a3.56,3.56,0,0,0-3.57,3.56v5.95a9.36,9.36,0,0,1-.74,3.7,9.56,9.56,0,0,1-3.46,4.19,9.33,9.33,0,0,1-2.48,1.2,9.58,9.58,0,0,1-2.83.42,9.36,9.36,0,0,1-3.7-.74,9.63,9.63,0,0,1-4.19-3.46,9.33,9.33,0,0,1-1.2-2.48,9.63,9.63,0,0,1-.42-2.83V23.21a3.56,3.56,0,0,0-3.57-3.56H142.84a3.56,3.56,0,0,0-3.57,3.56v5.95a28.53,28.53,0,0,0,12.58,23.66,28.07,28.07,0,0,0,7.48,3.59c.41.13.82.25,1.23.35l2.23,26.71a3.57,3.57,0,0,0,3.85,3.26l11.85-1a3.56,3.56,0,0,0,3.26-3.85l-2.23-26.71a28.61,28.61,0,0,0,11.95-10.06,28.07,28.07,0,0,0,3.59-7.48,28.46,28.46,0,0,0,1.29-8.48"/>
        <path class="cls-4" d="M146.44,138.45a25.89,25.89,0,1,1-25.89-25.89,25.89,25.89,0,0,1,25.89,25.89"/>
        <path class="cls-1" d="M135.18,143.2a15.4,15.4,0,0,1-3.93,6.28l-2-1.38a4,4,0,1,0-2.25,1.64l.71,2.3a15.29,15.29,0,0,1-7.19,1.79v3.68a19.06,19.06,0,0,0,18.13-13.17Z"/>
        <path class="cls-6" d="M113.36,152l.71-2.3a4,4,0,1,0-2.25-1.64l-2,1.38a15.38,15.38,0,0,1-3.92-6.28l-3.51,1.14a19.06,19.06,0,0,0,18.13,13.17v-3.68a15.29,15.29,0,0,1-7.19-1.79"/>
        <path class="cls-2" d="M131.76,123l-2.17,3a15.56,15.56,0,0,1,4.76,5.67l-1.92,1.45a4,4,0,1,0,.86,2.64l2.41,0a15.36,15.36,0,0,1-.52,7.39l3.5,1.14a18.78,18.78,0,0,0,.94-5.89A19.06,19.06,0,0,0,131.76,123"/>
        <path class="cls-3" d="M113.09,131.78a4.05,4.05,0,0,0-4.42,1.35l-1.92-1.45a15.56,15.56,0,0,1,4.76-5.67l-2.16-3a19.07,19.07,0,0,0-6.93,21.31l3.51-1.14a15.24,15.24,0,0,1-.76-4.75,16.4,16.4,0,0,1,.23-2.64l2.42,0a4,4,0,1,0,5.27-4"/>
        <path class="cls-5" d="M129.59,126l2.16-3a19.05,19.05,0,0,0-22.4,0l2.16,3a15.37,15.37,0,0,1,6.87-2.77l.78,2.27a4,4,0,1,0,2.78,0l.78-2.27a15.37,15.37,0,0,1,6.87,2.77"/>
        <path class="cls-3" d="M132.91,68.89a1.94,1.94,0,0,0,2.15-1.7l.77-6.42a2,2,0,0,0-1.7-2.15l-32.08-3.81a1.94,1.94,0,0,0-2.16,1.69l-.76,6.42a1.94,1.94,0,0,0,1.7,2.15Z"/>
        <path class="cls-4" d="M56.47,198.46v.44c0,.22,0,.48,0,.78s0,.62,0,.95,0,.64,0,.92a7.58,7.58,0,0,0,.06.76.9.9,0,0,0,.09.39v0a.5.5,0,0,0,.26.24.83.83,0,0,0,.34.07c.23,0,.4-.17.51-.5a4.85,4.85,0,0,0,.22-1.21,13.77,13.77,0,0,0,0-1.46c0-.51,0-.93,0-1.27a1.33,1.33,0,0,0-.16-.67.64.64,0,0,0-.61-.29.76.76,0,0,0-.61.25.94.94,0,0,0-.22.62m.27,6.29a.26.26,0,0,1-.1.23,1,1,0,0,1-.27.12,1.55,1.55,0,0,1-.31,0h-.28a1.11,1.11,0,0,1-.61-.11c-.11-.08-.16-.26-.16-.54,0-1,0-1.93-.09-2.89s-.09-1.92-.09-2.88a19.65,19.65,0,0,1,.1-2c.06-.67.09-1.34.09-2,0-.15,0-.28,0-.4a2.49,2.49,0,0,1,0-.4.77.77,0,0,1,.94-1,.72.72,0,0,1,.64.25,1.27,1.27,0,0,1,.17.7,3.48,3.48,0,0,1-.06.67v0a1.49,1.49,0,0,0,0,.28v1a1.49,1.49,0,0,1,0,.21,2.47,2.47,0,0,1,.63-.08,2.38,2.38,0,0,1,1.21.28,2.31,2.31,0,0,1,.79.73,2.92,2.92,0,0,1,.42,1,5.52,5.52,0,0,1,.13,1.23c0,.36,0,.72-.05,1.09s-.07.73-.12,1.09-.1.72-.15,1.12a3.43,3.43,0,0,1-.29,1.09,2,2,0,0,1-.68.82,2.32,2.32,0,0,1-1.35.33h-.23l-.2,0"/>
        <path class="cls-4" d="M63.8,205.58H64a.56.56,0,0,0,.51-.2,1.14,1.14,0,0,0,.17-.52l0,0v0a2.29,2.29,0,0,1-.83.14,2.06,2.06,0,0,1-.65-.11,1.52,1.52,0,0,1-.57-.34v0a2.88,2.88,0,0,1-.71-.81,4.26,4.26,0,0,1-.42-1,7.62,7.62,0,0,1-.2-1.08,10,10,0,0,1-.06-1.08c0-.68,0-1.36,0-2s0-1.33,0-2a.68.68,0,0,1,.31-.66,1.38,1.38,0,0,1,.71-.17c.3,0,.48.09.54.29a1.74,1.74,0,0,1,.1.61v.35c0,.21,0,.41,0,.61s0,.4,0,.61,0,.38,0,.57,0,.39,0,.58,0,.28,0,.42,0,.27,0,.41,0,.41,0,.7a4.58,4.58,0,0,0,.09.83,2,2,0,0,0,.29.69.69.69,0,0,0,.59.29c.17,0,.3-.12.39-.37a3.76,3.76,0,0,0,.19-.87,9,9,0,0,0,.06-1.05v-.85q0-.84-.06-1.68a5.93,5.93,0,0,0-.14-.86,3.88,3.88,0,0,1-.09-.82.4.4,0,0,1,.14-.31.81.81,0,0,1,.35-.16,2,2,0,0,1,.42-.06H66a3.89,3.89,0,0,1,.21.85,6.86,6.86,0,0,1,0,.81c0,.87,0,1.75,0,2.62s0,1.75,0,2.63v.59c0,.25,0,.5,0,.75s0,.49-.06.72a2.82,2.82,0,0,1-.12.56l0,0-.13.49a1.48,1.48,0,0,1-.22.46v0A2.14,2.14,0,0,1,65,207a2.42,2.42,0,0,1-1.15.29l-.46,0a3.71,3.71,0,0,1-.58-.11,1.89,1.89,0,0,1-.52-.21.42.42,0,0,1-.22-.37,1.8,1.8,0,0,1,.08-.25,3,3,0,0,1,.21-.46,3.18,3.18,0,0,1,.29-.45.44.44,0,0,1,.31-.19.78.78,0,0,1,.47.17.67.67,0,0,0,.38.18Z"/>
        <path class="cls-4" d="M77.48,195.8a.65.65,0,0,1-.59-.22,1.89,1.89,0,0,1-.24-.47,2.65,2.65,0,0,0-.26-.5.9.9,0,0,0-.63-.32h-.13a1.49,1.49,0,0,0-.55.1,2,2,0,0,0-.52.26,1.28,1.28,0,0,0-.37.4,1,1,0,0,0-.15.53,1.7,1.7,0,0,0,.31,1,4.74,4.74,0,0,0,.75.81,10.55,10.55,0,0,0,.91.71,5.69,5.69,0,0,1,.8.69A6.44,6.44,0,0,1,78,200.45a4.42,4.42,0,0,1,.45,1.92,2.7,2.7,0,0,1-.89,2,3,3,0,0,1-1,.57,3.43,3.43,0,0,1-1.15.2,4.76,4.76,0,0,1-1.28-.18,2.5,2.5,0,0,1-1.11-.65h0a2.16,2.16,0,0,1-.32-.4,2.92,2.92,0,0,1-.25-.5,2.85,2.85,0,0,1-.16-.55,2.52,2.52,0,0,1-.06-.52.29.29,0,0,1,.23-.33A1.47,1.47,0,0,1,73,202h.52l.52,0a1.67,1.67,0,0,1,.07.35,1.57,1.57,0,0,0,0,.3.63.63,0,0,0,.19.32,1.72,1.72,0,0,0,.35.25,2.54,2.54,0,0,0,.41.18,1.34,1.34,0,0,0,.36.06,1.06,1.06,0,0,0,.75-.29.92.92,0,0,0,.33-.73,1.82,1.82,0,0,0-.06-.46,2.38,2.38,0,0,0-.15-.45,3.9,3.9,0,0,0-.64-1.14,6.79,6.79,0,0,0-.82-.87c-.29-.26-.58-.51-.87-.73a9.33,9.33,0,0,1-.81-.74,4.12,4.12,0,0,1-.64-.89,3.73,3.73,0,0,1-.37-1.22,3.56,3.56,0,0,1,.25-1.35,3.41,3.41,0,0,1,.69-1.11,3.06,3.06,0,0,1,1-.75,3.17,3.17,0,0,1,1.35-.28,3.24,3.24,0,0,1,1.36.26,2.94,2.94,0,0,1,1,.69,2.78,2.78,0,0,1,.61,1,3.27,3.27,0,0,1,.2,1.17Z"/>
        <path class="cls-4" d="M83.05,205c0-.74.06-1.46.06-2.18,0-.44,0-.87,0-1.3s0-.85,0-1.29c0-.09,0-.19,0-.32s0-.25,0-.39,0-.4,0-.61a2.59,2.59,0,0,0-.12-.58.91.91,0,0,0-.26-.42.6.6,0,0,0-.44-.17.71.71,0,0,0-.43.12.76.76,0,0,0-.23.3,1.3,1.3,0,0,0-.09.4,3.31,3.31,0,0,0,0,.44c0,.9,0,1.79.12,2.68a26.32,26.32,0,0,1,.13,2.66,1.11,1.11,0,0,1-.09.51.41.41,0,0,1-.23.22.9.9,0,0,1-.34.06h-.4c-.34,0-.54-.06-.6-.2a1,1,0,0,1-.1-.47c0-.08,0-.16,0-.24a2.09,2.09,0,0,0,0-.24c0-1.21,0-2.41-.1-3.59s-.11-2.38-.11-3.59a1.93,1.93,0,0,1,0-.23,1.1,1.1,0,0,1,.06-.26.66.66,0,0,1,.12-.22.29.29,0,0,1,.22-.08h.29a1.51,1.51,0,0,1,.37,0,1,1,0,0,1,.34.09.37.37,0,0,1,.19.25,2.69,2.69,0,0,1,1.33-.36,1.51,1.51,0,0,1,.78.23,2.6,2.6,0,0,1,.67.5h0a1.83,1.83,0,0,1,.41-.37,3,3,0,0,1,.51-.25h0a1.64,1.64,0,0,1,.73-.15,1.84,1.84,0,0,1,.83.19h0a2,2,0,0,1,.89.68,3.25,3.25,0,0,1,.45,1,5.52,5.52,0,0,1,.19,1.09c0,.38.08.74.13,1.07a14.58,14.58,0,0,1,.15,1.87c0,.63,0,1.25,0,1.84q0,.36,0,.72a1.55,1.55,0,0,1-.18.63H88a2,2,0,0,0-.49.06,2.57,2.57,0,0,1-.5.05.43.43,0,0,1-.4-.2,1.19,1.19,0,0,1-.19-.5,3.22,3.22,0,0,1-.07-.64c0-.22,0-.42,0-.6s0-.64,0-.95,0-.63,0-1c0-.12,0-.29,0-.53s0-.46,0-.7,0-.47-.06-.68a2,2,0,0,0-.09-.49v0a2.56,2.56,0,0,1-.07-.27h0a2.56,2.56,0,0,1-.09-.26,1.59,1.59,0,0,0-.12-.27.89.89,0,0,0-.16-.22.34.34,0,0,0-.23-.1c-.05,0-.13.05-.22.16a3.55,3.55,0,0,0-.27.35c-.09.14-.17.27-.24.4a1.23,1.23,0,0,0-.12.27,1,1,0,0,0,0,.3v.3c0,.9,0,1.8.1,2.69s.11,1.79.13,2.69Z"/>
        <path class="cls-4" d="M91.78,200.48a.79.79,0,0,0-.17.32,3.39,3.39,0,0,0-.1.48,3.14,3.14,0,0,0-.05.51c0,.16,0,.28,0,.37a1.48,1.48,0,0,0,.18.72.57.57,0,0,0,.89.18,1.22,1.22,0,0,0,.27-.36,1.69,1.69,0,0,0,.16-.48,2.37,2.37,0,0,0,.06-.52c0-.13,0-.27,0-.42a2.7,2.7,0,0,0-.07-.41,1.16,1.16,0,0,0-.18-.35.61.61,0,0,0-.29-.21h0l-.13,0H92.2a.46.46,0,0,0-.42.21m1.31,4.38a5.08,5.08,0,0,1-.51.17,2.41,2.41,0,0,1-.53.07,1.59,1.59,0,0,1-.78-.22,3.1,3.1,0,0,1-.67-.48h0a2.56,2.56,0,0,1-.71-1.22,6.84,6.84,0,0,1-.14-1.37,4.5,4.5,0,0,1,.16-1.2,3.56,3.56,0,0,1,.5-1.08,2.37,2.37,0,0,1,.84-.76,2.32,2.32,0,0,1,1.2-.29,1.27,1.27,0,0,1,.48.08c0-.11,0-.22,0-.34a1.66,1.66,0,0,0,0-.33.66.66,0,0,0-.13-.25.3.3,0,0,0-.24-.11.25.25,0,0,0-.23.17v.13a.4.4,0,0,1-.14.31,1,1,0,0,1-.33.17,2.38,2.38,0,0,1-.4.07l-.35,0h-.25a.78.78,0,0,1-.36-.06c-.07,0-.1-.11-.1-.23a2.36,2.36,0,0,1,.15-.81,2.68,2.68,0,0,1,.42-.74,2.11,2.11,0,0,1,.62-.53,1.6,1.6,0,0,1,.8-.22,2.21,2.21,0,0,1,1.73.74,2.89,2.89,0,0,1,.66,2v1.86c0,.63,0,1.25-.06,1.88s-.06,1.22-.06,1.8v.46c0,.33-.07.51-.2.55a2.64,2.64,0,0,1-.55.05h-.47q-.27,0-.3-.18Z"/>
        <path class="cls-4" d="M98,195.66a.58.58,0,0,1,.09.35,1.89,1.89,0,0,1,.52-.13,4.93,4.93,0,0,1,.55,0,1.61,1.61,0,0,1,.59.13,2.93,2.93,0,0,1,.58.31,2.28,2.28,0,0,1,.45.42.82.82,0,0,1,.17.47.21.21,0,0,1,0,.13l-.09.08,0,0c0,.11,0,.17-.09.19a.69.69,0,0,0-.16.13l-.12.07-.23.19-.25.18a.51.51,0,0,1-.19.08.45.45,0,0,1-.26-.09l-.25-.19-.24-.2a.43.43,0,0,0-.23-.08h0a.68.68,0,0,0-.47.42,2.37,2.37,0,0,0-.19.73,6.89,6.89,0,0,0,0,.79c0,.26,0,.48,0,.64,0,.7,0,1.39,0,2.07s0,1.37,0,2.06a1.77,1.77,0,0,1-.06.43l0,0a.4.4,0,0,1-.3.33,2.73,2.73,0,0,1-.5.05,2,2,0,0,1-.55-.05c-.13,0-.25-.15-.38-.35s0-.24,0-.36V204c0-1.35,0-2.7-.09-4s-.09-2.67-.09-4a.39.39,0,0,1,.31-.42,2.27,2.27,0,0,1,.63-.08h.44a.5.5,0,0,1,.4.17"/>
        <path class="cls-4" d="M104.9,194.23a1.23,1.23,0,0,1,0,.27v.27c0,.18,0,.37,0,.55s0,.37,0,.55h.85a2.32,2.32,0,0,1,.83.19c0,.22,0,.41,0,.59a1.71,1.71,0,0,1,0,.47.49.49,0,0,1-.2.3,1,1,0,0,1-.52.1,2.1,2.1,0,0,1-.51-.06,2.76,2.76,0,0,0-.51-.05c0,.54,0,1.07-.06,1.6s0,1,0,1.58a10.39,10.39,0,0,0,.08,1.35,2.84,2.84,0,0,0,.44,1.25v0s.06,0,.14,0a.36.36,0,0,0,.2-.06,1.21,1.21,0,0,0,.16-.16.8.8,0,0,1,.17-.15.31.31,0,0,1,.22-.07.45.45,0,0,1,.34.13,2.32,2.32,0,0,1,.24.28v0l.13.17v.06a1.24,1.24,0,0,1,.18.21.5.5,0,0,1,.07.27.72.72,0,0,1-.21.5,2.09,2.09,0,0,1-.51.41,3.81,3.81,0,0,1-.62.28,1.74,1.74,0,0,1-.55.1,1.5,1.5,0,0,1-1-.38,3.19,3.19,0,0,1-.69-.76,3,3,0,0,1-.35-.83,4.53,4.53,0,0,1-.15-.92c0-.32,0-.66,0-1,0-.58,0-1.16,0-1.73s0-1.15,0-1.73v-.34h-.29a.82.82,0,0,1-.21,0h-.14a.5.5,0,0,1-.25-.32,1.65,1.65,0,0,1-.06-.43,1.17,1.17,0,0,1,.1-.52.51.51,0,0,1,.24-.24.72.72,0,0,1,.33-.07h.36a6.33,6.33,0,0,0,.09-.95,2.41,2.41,0,0,1,.06-.6.47.47,0,0,1,.26-.32,1.9,1.9,0,0,1,.71-.1l.27,0a.6.6,0,0,1,.23.1Z"/>
        <path class="cls-4" d="M112.11,201.64c0-.14.07-.27.1-.4a2.71,2.71,0,0,0,0-.41c0-.06,0-.11,0-.15s-.07-.06-.17-.06a2.6,2.6,0,0,0-.4,0,2.73,2.73,0,0,1-.41,0,.82.82,0,0,1-.42-.09.53.53,0,0,1-.23-.24.88.88,0,0,1-.1-.37c0-.13,0-.27,0-.41,0-.32.12-.51.35-.58a3,3,0,0,1,.87-.11h.48a4.71,4.71,0,0,0,.53,0,4.61,4.61,0,0,1,.53,0,1.85,1.85,0,0,1,.71.15,4.13,4.13,0,0,1,.17.93c0,.32,0,.64,0,1a13.56,13.56,0,0,1-.09,1.58,4.12,4.12,0,0,1-.38,1.38,2.39,2.39,0,0,1-.84,1,2.67,2.67,0,0,1-1.49.36,3.15,3.15,0,0,1-1.45-.3,2.47,2.47,0,0,1-.92-.8,3.52,3.52,0,0,1-.53-1.14,9.9,9.9,0,0,1-.24-1.36c0-.46-.06-.93-.06-1.39v-1.3l-.06-1c0-.35,0-.69,0-1s0-.71,0-1.06a3.88,3.88,0,0,1,.21-1,2.6,2.6,0,0,1,.49-.83,2.5,2.5,0,0,1,.87-.66v0c.23-.1.48-.19.73-.27a2.63,2.63,0,0,1,.77-.12,2.85,2.85,0,0,1,.9.16,4.31,4.31,0,0,1,.93.41,3.1,3.1,0,0,1,.72.6,1.07,1.07,0,0,1,.29.68.53.53,0,0,1-.12.32,2.87,2.87,0,0,1-.29.31,1.24,1.24,0,0,1-.35.23.71.71,0,0,1-.3.09.69.69,0,0,1-.31-.13l-.44-.28c-.16-.11-.31-.22-.48-.32a1.44,1.44,0,0,0-.39-.2h-.25a1.18,1.18,0,0,0-.65.15.84.84,0,0,0-.33.39,1.53,1.53,0,0,0-.12.55c0,.2,0,.41,0,.61,0,.48,0,.95,0,1.42s0,.94,0,1.42,0,1.07,0,1.62.07,1.09.13,1.62a1.68,1.68,0,0,0,.24.68.83.83,0,0,0,.74.3.66.66,0,0,0,.53-.2,1.19,1.19,0,0,0,.28-.49,3.77,3.77,0,0,0,.13-.62c0-.22.07-.4.11-.56Z"/>
        <path class="cls-4" d="M117.36,200.48a.79.79,0,0,0-.16.32,3.38,3.38,0,0,0-.11.48,4.75,4.75,0,0,0,0,.51c0,.16,0,.28,0,.37a1.48,1.48,0,0,0,.18.72.57.57,0,0,0,.89.18,1.22,1.22,0,0,0,.27-.36,2.08,2.08,0,0,0,.16-.48,2.37,2.37,0,0,0,.06-.52c0-.13,0-.27,0-.42a1.86,1.86,0,0,0-.08-.41,1.14,1.14,0,0,0-.17-.35.66.66,0,0,0-.29-.21h0l-.14,0h-.13a.48.48,0,0,0-.43.21m1.32,4.38a4.51,4.51,0,0,1-.52.17,2.33,2.33,0,0,1-.53.07,1.59,1.59,0,0,1-.78-.22,3.29,3.29,0,0,1-.66-.48h0a2.49,2.49,0,0,1-.71-1.22,6.84,6.84,0,0,1-.14-1.37,4.5,4.5,0,0,1,.16-1.2,3.54,3.54,0,0,1,.49-1.08,2.56,2.56,0,0,1,.84-.76,2.36,2.36,0,0,1,1.21-.29,1.27,1.27,0,0,1,.48.08c0-.11,0-.22,0-.34a1.63,1.63,0,0,0,0-.33.53.53,0,0,0-.12-.25.3.3,0,0,0-.24-.11.26.26,0,0,0-.24.17v.13a.39.39,0,0,1-.13.31,1,1,0,0,1-.33.17,2.57,2.57,0,0,1-.4.07l-.35,0h-.25a.78.78,0,0,1-.36-.06c-.07,0-.1-.11-.1-.23a2.36,2.36,0,0,1,.15-.81,2.66,2.66,0,0,1,.41-.74,2.28,2.28,0,0,1,.63-.53,1.6,1.6,0,0,1,.79-.22,2.23,2.23,0,0,1,1.74.74,2.89,2.89,0,0,1,.65,2v1.86c0,.63,0,1.25,0,1.88s-.06,1.22-.06,1.8v.46c0,.33-.07.51-.2.55a2.64,2.64,0,0,1-.55.05H119q-.26,0-.3-.18Z"/>
        <path class="cls-4" d="M130.33,205a.94.94,0,0,1-.3.12l-.26,0a3.46,3.46,0,0,1-.64,0,.44.44,0,0,1-.32-.17.71.71,0,0,1-.11-.4c0-.17,0-.41,0-.72s0-.48,0-.71,0-.47,0-.72a19.77,19.77,0,0,0-.11-2.18,20.14,20.14,0,0,0-.33-2.16.51.51,0,0,0-.37-.13,1.64,1.64,0,0,0-.73.18.64.64,0,0,0-.37.63c0,1,0,1.95,0,2.93s.06,2,.12,2.93a.92.92,0,0,1-.47.29,1.7,1.7,0,0,1-.56.1.49.49,0,0,1-.46-.25,1.76,1.76,0,0,1-.18-.6,4.17,4.17,0,0,1-.05-.71c0-.25,0-.45,0-.6v0a1.61,1.61,0,0,1,0-.37v-.39c0-.29,0-.58,0-.87s0-.59,0-.88v-.59a4.11,4.11,0,0,0-.07-.78,2.26,2.26,0,0,0-.22-.68.48.48,0,0,0-.44-.29,1.08,1.08,0,0,0-.52.16.46.46,0,0,0-.26.4,5.09,5.09,0,0,0,0,.55,3.48,3.48,0,0,1,0,.55c0,.4,0,.79,0,1.18s0,.77,0,1.16a7.93,7.93,0,0,0,.06,1,8,8,0,0,1,.06,1c0,.19,0,.38,0,.56a2.05,2.05,0,0,1-.1.54l-.42,0a3,3,0,0,1-.42,0,2.86,2.86,0,0,1-.42,0,2,2,0,0,1-.4-.1,7.18,7.18,0,0,1-.11-1.05c0-.37,0-.72,0-1.05s0-.67,0-1,0-.67,0-1,0-.51,0-.76,0-.51,0-.76v0l0-.67c0-.22,0-.44,0-.66s0-.52,0-.79a7.4,7.4,0,0,1,.08-.81,2.19,2.19,0,0,1,.72-.21,5.59,5.59,0,0,1,.74-.06.11.11,0,0,1,.12.12.25.25,0,0,1,0,.08.37.37,0,0,0,0,.11.29.29,0,0,0,.06.19,4.25,4.25,0,0,0,.64-.32,1.39,1.39,0,0,1,.69-.18,2,2,0,0,1,.75.13,1.61,1.61,0,0,1,.64.43,3.56,3.56,0,0,1,1-.46,3.3,3.3,0,0,1,1-.18,1.6,1.6,0,0,1,1.1.38,2.48,2.48,0,0,1,.67.94,4.84,4.84,0,0,1,.33,1.2,8.28,8.28,0,0,1,.08,1.16q0,1.25-.09,2.61c-.07.9-.1,1.77-.1,2.59"/>
        <path class="cls-4" d="M134.64,197.51a.42.42,0,0,0-.34.21,1.54,1.54,0,0,0-.24.48,3.58,3.58,0,0,0-.16.56c0,.18-.06.32-.07.41a1.12,1.12,0,0,0,.32,0h.33a8.27,8.27,0,0,0,1-.06V199a2.37,2.37,0,0,0,0-.42,2.13,2.13,0,0,0-.15-.49,1.14,1.14,0,0,0-.25-.39.48.48,0,0,0-.36-.17m.9,3.32a2.81,2.81,0,0,0-.56.06,2.74,2.74,0,0,1-.56.06h-.23l-.25,0h0l-.19,0h-.19a2.43,2.43,0,0,0-.08.47c0,.16,0,.32,0,.48a3.08,3.08,0,0,0,0,.51,1.34,1.34,0,0,0,.15.48,1,1,0,0,0,.32.36.92.92,0,0,0,.51.13.94.94,0,0,0,.62-.22.93.93,0,0,0,.33-.57.63.63,0,0,1,.83-.69h.37a.55.55,0,0,1,.27,0,.4.4,0,0,1,.17.22,1.49,1.49,0,0,1,.06.5,2.13,2.13,0,0,1-.24,1,2.78,2.78,0,0,1-1.47,1.39,2.58,2.58,0,0,1-1,.2,2.14,2.14,0,0,1-1.22-.32,2.35,2.35,0,0,1-.74-.83,3.49,3.49,0,0,1-.37-1.13,8.89,8.89,0,0,1-.1-1.25c0-.32,0-.69,0-1.12a11.74,11.74,0,0,1,.13-1.29,9.23,9.23,0,0,1,.27-1.29,4.53,4.53,0,0,1,.46-1.14,2.51,2.51,0,0,1,.71-.8,1.66,1.66,0,0,1,1-.3,1.68,1.68,0,0,1,1.29.49,3.1,3.1,0,0,1,.69,1.2,7,7,0,0,1,.27,1.48c0,.52,0,1,0,1.36s-.09.46-.28.53a1.46,1.46,0,0,1-.6.11h-.47"/>
        <path class="cls-4" d="M142.16,200.23a5.23,5.23,0,0,1,.65.68,3.44,3.44,0,0,1,.47.78,2.2,2.2,0,0,1,.18.88,3.16,3.16,0,0,1-.11.83,2.36,2.36,0,0,1-.35.77v0a2.07,2.07,0,0,1-.89.76,2.61,2.61,0,0,1-1.15.26,3.07,3.07,0,0,1-2-.69v0l-.2-.17-.21-.24c-.06-.09-.12-.18-.17-.27a.53.53,0,0,1-.08-.23,1.1,1.1,0,0,1,.21-.27,3.37,3.37,0,0,1,.35-.29,2.65,2.65,0,0,1,.39-.23.86.86,0,0,1,.33-.1.49.49,0,0,1,.25.12l.34.26a3.54,3.54,0,0,0,.41.26.88.88,0,0,0,.44.12c.14,0,.26-.1.34-.29a1.4,1.4,0,0,0,.13-.47,1.2,1.2,0,0,0-.17-.58,4,4,0,0,0-.39-.56,4.62,4.62,0,0,0-.5-.49l-.47-.39-.64-.5a2.86,2.86,0,0,1-.48-.51,2.11,2.11,0,0,1-.3-.6,2.93,2.93,0,0,1-.1-.84,2.19,2.19,0,0,1,.2-.95,2.63,2.63,0,0,1,.55-.78A2.67,2.67,0,0,1,140,196a2.34,2.34,0,0,1,1-.19,1.66,1.66,0,0,1,.57.09v0a4.6,4.6,0,0,1,.51.18,2.77,2.77,0,0,1,.54.28,2.48,2.48,0,0,1,.42.36.61.61,0,0,1,.17.4,1.37,1.37,0,0,1-.24.27l-.35.31a2.94,2.94,0,0,1-.39.26.68.68,0,0,1-.31.1.22.22,0,0,1-.13-.06l-.2-.16a.87.87,0,0,0-.27-.15.71.71,0,0,0-.32-.07.5.5,0,0,0-.43.19.81.81,0,0,0-.13.47,1,1,0,0,0,.1.44,1.7,1.7,0,0,0,.27.39l.35.32a4.57,4.57,0,0,0,.36.29h0c.23.17.46.36.7.56"/>
        <path class="cls-4" d="M146.45,196.89a1.84,1.84,0,0,0-.12-.6.82.82,0,0,0-.26-.32s0-.05,0-.05l.16-.1h.06a.05.05,0,0,1,0,0,1.08,1.08,0,0,1,.31.37,1.63,1.63,0,0,1,.15.6.09.09,0,0,1,0,.07.2.2,0,0,1-.11,0h-.22m-.38-1.15a.3.3,0,0,0,.24-.1.5.5,0,0,0,.09-.33.35.35,0,0,0-.07-.23.28.28,0,0,0-.24-.09h-.19v.74h.17m-.35.29a.1.1,0,0,1-.07,0v-1.28l0,0h.36a.75.75,0,0,1,.53.16.74.74,0,0,1,0,1,.72.72,0,0,1-.48.17Zm-.11.86v-2.14a.05.05,0,0,1,.06,0h.17a.16.16,0,0,1,.1,0v2.07a.05.05,0,0,1-.06.06h-.27m.48.33a1.38,1.38,0,0,0,.62-.14,1,1,0,0,0,.44-.45,1.68,1.68,0,0,0,.17-.83,2,2,0,0,0-.13-.8.89.89,0,0,0-.38-.45,1.35,1.35,0,0,0-.64-.14,1.28,1.28,0,0,0-.9.31,1.43,1.43,0,0,0-.34,1.1,2.11,2.11,0,0,0,.13.84.85.85,0,0,0,.4.43,1.34,1.34,0,0,0,.63.13m0,.51a2.7,2.7,0,0,1-.74-.1,1.29,1.29,0,0,1-.54-.33,1.39,1.39,0,0,1-.32-.59,3.22,3.22,0,0,1-.11-.89,1.92,1.92,0,0,1,.47-1.43,1.82,1.82,0,0,1,1.31-.46,2,2,0,0,1,.94.19,1.15,1.15,0,0,1,.55.58,2.77,2.77,0,0,1,.18,1.1,2.08,2.08,0,0,1-.45,1.43,1.66,1.66,0,0,1-1.29.5"/>
      </g>
    </g>
  </g>
</svg>
