<svg xmlns="http://www.w3.org/2000/svg" viewBox="0 0 29.73 35.25">
  <defs>
    <style>
      .cls-1 {
        fill: #fff;
      }
    </style>
  </defs>
  <g id="Layer_2" data-name="Layer 2">
    <g id="hamburgermenu">
      <g>
        <path class="cls-1" d="M14.86,2.38a6.7,6.7,0,1,1-6.7,6.7,6.7,6.7,0,0,1,6.7-6.7m0-2.38a9.08,9.08,0,1,0,9.08,9.08A9.09,9.09,0,0,0,14.86,0"/>
        <path class="cls-1" d="M0,28.57a9,9,0,0,1,9-9H20.69a9,9,0,0,1,9,9v5.49a1.2,1.2,0,0,1-2.39,0V28.57a6.67,6.67,0,0,0-6.66-6.66H9a6.66,6.66,0,0,0-6.66,6.66v5.49a1.19,1.19,0,0,1-2.38,0Z"/>
      </g>
    </g>
  </g>
</svg>
