<svg xmlns="http://www.w3.org/2000/svg" viewBox="0 0 27.01 43.38">
  <defs>
    <style>
      .cls-1 {
        fill: none;
        stroke: #fff;
        stroke-linecap: round;
        stroke-linejoin: round;
        stroke-width: 1.5px;
      }
    </style>
  </defs>
  <g id="Layer_2" data-name="Layer 2">
    <g id="hamburgermenu">
      <path class="cls-1" d="M12.71,42.63a4.91,4.91,0,0,0,3.67-1.47,5,5,0,0,0,1.44-3.64,4.93,4.93,0,0,0-1.44-3.69,5,5,0,0,0-3.67-1.41,4.91,4.91,0,0,0-3.63,1.41,5,5,0,0,0-1.41,3.69,5,5,0,0,0,1.44,3.67A4.87,4.87,0,0,0,12.71,42.63ZM8.61,29h8.27a.68.68,0,0,0,.7-.7v-.82a4.06,4.06,0,0,1,.82-2.53,14.07,14.07,0,0,1,2.52-2.34A28.1,28.1,0,0,0,23.68,20a9.93,9.93,0,0,0,1.82-3,11.79,11.79,0,0,0,.76-4.46A11.28,11.28,0,0,0,22.89,4a12.49,12.49,0,0,0-9-3.23A14.56,14.56,0,0,0,7,2.33,11.49,11.49,0,0,0,2.39,6.76,12.91,12.91,0,0,0,.75,13.3v.18A.83.83,0,0,0,1,14a.67.67,0,0,0,.5.23l8.33.35c.47,0,.71-.21.71-.64V13.3a4.05,4.05,0,0,1,.85-2.67,2.83,2.83,0,0,1,2.31-1,2.46,2.46,0,0,1,2,.91A3.83,3.83,0,0,1,16.41,13a3.89,3.89,0,0,1-.82,2.49A17.84,17.84,0,0,1,13,18a30.11,30.11,0,0,0-2.64,2.38A8.59,8.59,0,0,0,8.61,23a9.5,9.5,0,0,0-.71,3.84v1.41a.69.69,0,0,0,.21.5A.7.7,0,0,0,8.61,29Z"/>
    </g>
  </g>
</svg>
