<svg xmlns="http://www.w3.org/2000/svg" viewBox="0 0 49.12 42.58">
  <defs>
    <style>
      .cls-1 {
        fill: none;
        stroke: #fff;
        stroke-miterlimit: 10;
        stroke-width: 1.5px;
      }
    </style>
  </defs>
  <g id="Layer_2" data-name="Layer 2">
    <g id="hamburgermenu">
      <path class="cls-1" d="M17.58,21.67a1.77,1.77,0,0,0,.54.92,1.32,1.32,0,0,1,.37.58,1.18,1.18,0,0,1-.9,1.48l-4.68,1a.65.65,0,0,0-.5.77l2.84,13.35a2.6,2.6,0,0,0,3.08,2l13.35-2.84a.65.65,0,0,0,.51-.77l-1-4.68a1.18,1.18,0,0,0-1.48-.89,1.23,1.23,0,0,0-.58.37,1.68,1.68,0,0,1-.93.53,2.23,2.23,0,0,1-2.46-1.93,2.23,2.23,0,0,1,1.46-2.77,1.74,1.74,0,0,1,1.08.12,1.19,1.19,0,0,0,1.66-1.32l-1-4.69a.65.65,0,0,0-.77-.5l-4.68,1a1.17,1.17,0,0,1-1.32-1.65,1.82,1.82,0,0,0,.12-1.08,2.25,2.25,0,0,0-2.77-1.47A2.24,2.24,0,0,0,17.58,21.67ZM28.2,33.49a1.68,1.68,0,0,0,.93-.53,1.23,1.23,0,0,1,.58-.37,1.18,1.18,0,0,1,1.48.89l1,4.68a.64.64,0,0,0,.77.5l13.35-2.83a2.61,2.61,0,0,0,2-3.09L45.47,19.39a.65.65,0,0,0-.77-.5l-4.68,1a1.17,1.17,0,0,0-.89,1.48,1.29,1.29,0,0,0,.37.58,1.78,1.78,0,0,1,.53.92,2.44,2.44,0,0,1-4.7,1,1.74,1.74,0,0,1,.12-1.08,1.25,1.25,0,0,0,.08-.74,1.19,1.19,0,0,0-1.41-.91l-4.68,1a.66.66,0,0,0-.5.77l1,4.69a1.19,1.19,0,0,1-1.66,1.32,1.74,1.74,0,0,0-1.08-.12,2.23,2.23,0,0,0-1.46,2.77A2.23,2.23,0,0,0,28.2,33.49ZM40,22.87A1.78,1.78,0,0,0,39.5,22a1.29,1.29,0,0,1-.37-.58A1.17,1.17,0,0,1,40,19.89l4.68-1a.64.64,0,0,0,.5-.77L42.36,4.77a2.58,2.58,0,0,0-3.08-2L25.93,5.6a.65.65,0,0,0-.5.77l1,4.69a1.18,1.18,0,0,0,2.06.52,1.8,1.8,0,0,1,.93-.54A2.23,2.23,0,0,1,31.87,13a2.23,2.23,0,0,1-1.46,2.77,1.74,1.74,0,0,1-1.08-.12A1.18,1.18,0,0,0,27.68,17l1,4.68a.65.65,0,0,0,.77.5l4.68-1a1.19,1.19,0,0,1,1.41.91,1.25,1.25,0,0,1-.08.74,1.74,1.74,0,0,0-.12,1.08,2.44,2.44,0,0,0,4.7-1ZM20,4.31a1.69,1.69,0,0,0-.72.8,1.23,1.23,0,0,1-.44.52,1.17,1.17,0,0,1-1.68-.4L14.8,1.08a.64.64,0,0,0-.88-.24L2.06,7.6a2.6,2.6,0,0,0-1,3.55L7.86,23a.66.66,0,0,0,.89.25l4.15-2.38a1.17,1.17,0,0,0,.4-1.68,1.2,1.2,0,0,0-.53-.44A1.77,1.77,0,0,1,12,18a2.22,2.22,0,0,1,1.1-2.93,2.22,2.22,0,0,1,3.08.55,1.71,1.71,0,0,1,.21,1.06,1.22,1.22,0,0,0,.15.73,1.2,1.2,0,0,0,1.62.45l4.15-2.38a.65.65,0,0,0,.25-.88l-2.38-4.16a1.2,1.2,0,0,1,.44-1.62,1.27,1.27,0,0,1,.74-.15,1.71,1.71,0,0,0,1.06-.21A2.23,2.23,0,0,0,23,5.41,2.23,2.23,0,0,0,20,4.31Z"/>
    </g>
  </g>
</svg>
