<svg xmlns="http://www.w3.org/2000/svg" viewBox="0 0 37.38 38.21">
  <defs>
    <style>
      .cls-1 {
        fill: #fff;
      }
    </style>
  </defs>
  <g id="Layer_2" data-name="Layer 2">
    <g id="hamburgermenu">
      <g>
        <path class="cls-1" d="M27.85,30.31s.34-.56.54-.87l3.3-4.89-2.21-4.26a.64.64,0,1,1,1.13-.58l2.56,4.95-4.06,6a1.28,1.28,0,0,0-.23.72h0a1.33,1.33,0,0,0,.18.7.92.92,0,0,0,.17.22,1.32,1.32,0,0,0,1.33.4l.09,0a1.33,1.33,0,0,0,.69-.53l4.49-6.66a1.62,1.62,0,0,0,.1-.18,1.37,1.37,0,0,0,0-1.26l-3.11-6c0-.06-.27-.51-.32-.59l0,0a2.56,2.56,0,0,0-2-1.09H22.82a2.57,2.57,0,0,0-2.25,1.31c-.21.4-.4.86-.59,1.32a.63.63,0,0,1-.84.32.64.64,0,0,1-.32-.84l.35-.8a4.09,4.09,0,0,1,3.65-2.59h7.55a3.84,3.84,0,0,1,2.78,1.18,2.56,2.56,0,0,1,.46.57,5,5,0,0,1,.3.56l3.18,6.17a2.64,2.64,0,0,1-.26,2.81c0,.06-4.43,6.53-4.43,6.53A2.6,2.6,0,0,1,30.46,34v3.53a.64.64,0,0,1-.64.64.64.64,0,0,1-.63-.64V33.84a4.36,4.36,0,0,1-.42-.23,2.64,2.64,0,0,1-.91-3.3"/>
        <path class="cls-1" d="M20.63,15a3.21,3.21,0,0,0-3.1-2.4H8.41a3.64,3.64,0,0,0-2.33.83,1.56,1.56,0,0,0-.2.16,3.07,3.07,0,0,0-.63,1s-3.76,7.28-3.76,7.28a1.74,1.74,0,0,0,0,1.6c0,.08.37.61.42.69l5.32,7.9a1.72,1.72,0,0,0,3.15-1,1.69,1.69,0,0,0-.29-1L5.82,23.78h0L5,22.58l1.57-3L8.05,16.7a.63.63,0,1,1,1.12.57L6.5,22.49,11,29.2a7.13,7.13,0,0,1,.56,1.16,3,3,0,0,1-1.23,3.2.1.1,0,0,0-.05,0v4a.64.64,0,0,1-.64.64A.64.64,0,0,1,9,37.57V34.05a3,3,0,0,1-2.84-1.3L.64,24.57a3,3,0,0,1-.31-3.22s4-7.74,4.13-8A2.81,2.81,0,0,1,5,12.71,4.45,4.45,0,0,1,8.2,11.34h9.33a4.49,4.49,0,0,1,4.29,3.19h0a4.56,4.56,0,0,0-1.19.48"/>
        <path class="cls-1" d="M26.28,6.3a3.45,3.45,0,1,1-3.44,3.45A3.45,3.45,0,0,1,26.28,6.3m0-1.27A4.73,4.73,0,1,0,31,9.75,4.72,4.72,0,0,0,26.28,5"/>
        <path class="cls-1" d="M14.3,1.28a4.08,4.08,0,1,1-4.07,4.07A4.08,4.08,0,0,1,14.3,1.28M14.3,0a5.35,5.35,0,1,0,5.35,5.35A5.36,5.36,0,0,0,14.3,0"/>
        <path class="cls-1" d="M19.69,21.2a3.25,3.25,0,1,1-3.25,3.24,3.24,3.24,0,0,1,3.25-3.24m0-1.15a4.4,4.4,0,1,0,4.39,4.39,4.4,4.4,0,0,0-4.39-4.39"/>
        <path class="cls-1" d="M15.83,34v3.59a.58.58,0,0,0,1.16,0V34a.58.58,0,0,0-1.16,0m6.56,0v3.59a.58.58,0,0,0,1.15,0V34a.58.58,0,1,0-1.15,0m-9.9,2.83v-3a4.39,4.39,0,0,1,4.38-4.38h5.64a4.38,4.38,0,0,1,4.37,4.38v3.75a.58.58,0,0,1-1.15,0V33.88a3.22,3.22,0,0,0-3.22-3.22H16.87a3.23,3.23,0,0,0-3.23,3.22v3.75a.56.56,0,0,1-.57.57.57.57,0,0,1-.58-.57Z"/>
      </g>
    </g>
  </g>
</svg>
