<svg xmlns="http://www.w3.org/2000/svg" viewBox="0 0 33.69 32.66">
  <defs>
    <style>
      .cls-1 {
        fill: #fff;
      }
    </style>
  </defs>
  <g id="Layer_2" data-name="Layer 2">
    <g id="hamburgermenu">
      <g>
        <path class="cls-1" d="M10.36,31.36a9.07,9.07,0,1,1,9.07-9.07,9.08,9.08,0,0,1-9.07,9.07m0-19.43A10.37,10.37,0,1,0,20.73,22.29,10.37,10.37,0,0,0,10.36,11.93"/>
        <path class="cls-1" d="M23.1,6.73c-5.65,0-9.26-1.61-9.26-2.72S17.36,1.3,23.1,1.3,32.39,2.91,32.39,4,28.77,6.73,23.1,6.73M23.1,0C17.85,0,12.54,1.38,12.54,4V9.86a.65.65,0,0,0,.61.65.65.65,0,0,0,.69,0A.65.65,0,0,0,14,9.56a.7.7,0,0,1-.15-.42V6c1.92,1.32,5.67,2,9.26,2s7.37-.7,9.29-2V9.14c0,1.11-3.62,2.71-9.29,2.71A22.86,22.86,0,0,1,18,11.37a.66.66,0,0,0-.78.49.65.65,0,0,0,.49.78,24.34,24.34,0,0,0,5.35.51c3.68,0,7.39-.67,9.29-2v3c0,1.1-3.62,2.71-9.29,2.71l-.42,0-.5,0a.65.65,0,0,0,0,1.3l.42,0,.5,0c3.61,0,7.37-.69,9.29-2v3c0,1.1-3.62,2.71-9.29,2.71a.65.65,0,0,0,0,1.3c3.61,0,7.37-.69,9.29-2v3c0,1.1-3.62,2.71-9.29,2.71H22a.65.65,0,1,0,0,1.3H23.1c5.26,0,10.59-1.38,10.59-4V4c0-2.63-5.33-4-10.59-4"/>
      </g>
    </g>
  </g>
</svg>
