<svg xmlns="http://www.w3.org/2000/svg" viewBox="0 0 42.12 44.43">
  <defs>
    <style>
      .cls-1 {
        fill: #fff;
      }
    </style>
  </defs>
  <g id="Layer_2" data-name="Layer 2">
    <g id="hamburgermenu">
      <g>
        <path class="cls-1" d="M5.93,4.52a.68.68,0,0,0,.68-.69V1.37H37V22.86H18.57a.68.68,0,0,0,0,1.36H37.65a.68.68,0,0,0,.69-.68V.68A.69.69,0,0,0,37.65,0H5.93a.68.68,0,0,0-.68.68V3.83a.68.68,0,0,0,.68.69"/>
        <path class="cls-1" d="M5.93,7.5a3.17,3.17,0,1,1-3.16,3.17A3.17,3.17,0,0,1,5.93,7.5m0,7.69A4.53,4.53,0,1,0,1.4,10.67a4.53,4.53,0,0,0,4.53,4.52"/>
        <path class="cls-1" d="M2,30.85a.68.68,0,0,0,.68-.68v-10a3.29,3.29,0,0,1,3.29-3.28,3.21,3.21,0,0,1,3.25,2.73l-.55.19a.68.68,0,0,0-.44.86.68.68,0,0,0,.65.47.6.6,0,0,0,.22,0l1-.34h0l4.74-1.56h0a.87.87,0,0,1,.32-.06,1,1,0,0,1,.41,2h0l-6.18,2a1,1,0,0,1-.3,0,1,1,0,0,1-.7-.26L5.85,20.68a.68.68,0,0,0-1,.05.67.67,0,0,0,0,1L7.46,24h0l0,0h0a2.38,2.38,0,0,0,1.59.6,2.82,2.82,0,0,0,.7-.1h0l6.19-2,.08,0,.05,0a2.41,2.41,0,0,0,1.47-2.22,2.32,2.32,0,0,0-.17-.87L23.14,13a.67.67,0,0,0-.05-1,.68.68,0,0,0-1,.05l-5.57,6.19a2.37,2.37,0,0,0-1.39-.44,2.4,2.4,0,0,0-.75.12h0l-3.93,1.3a4.48,4.48,0,0,0-1.28-2.35,4.67,4.67,0,0,0-7.93,3.33v10a.68.68,0,0,0,.68.68"/>
        <path class="cls-1" d="M10.58,27.73V26.22a.68.68,0,0,0-1.36,0v1.51a.68.68,0,0,0,1.36,0"/>
        <path class="cls-1" d="M9.6,35A2.89,2.89,0,1,1,6.72,32.1,2.89,2.89,0,0,1,9.6,35m-7,0a4.14,4.14,0,1,0,4.14-4.14A4.14,4.14,0,0,0,2.58,35"/>
        <path class="cls-1" d="M9.31,39.55H4.12A4.13,4.13,0,0,0,0,43.67v.13a.63.63,0,0,0,.63.63.63.63,0,0,0,.63-.63v-.13A2.87,2.87,0,0,1,4.12,40.8H9.31a2.88,2.88,0,0,1,2.87,2.87v.13a.63.63,0,1,0,1.25,0v-.13a4.13,4.13,0,0,0-4.13-4.12"/>
        <path class="cls-1" d="M24,35a2.89,2.89,0,1,1-2.89-2.89A2.9,2.9,0,0,1,24,35m-7,0a4.14,4.14,0,1,0,4.14-4.14A4.15,4.15,0,0,0,16.92,35"/>
        <path class="cls-1" d="M23.65,39.55H18.47a4.13,4.13,0,0,0-4.13,4.12v.13a.63.63,0,0,0,.63.63.63.63,0,0,0,.63-.63v-.13a2.88,2.88,0,0,1,2.87-2.87h5.18a2.87,2.87,0,0,1,2.87,2.87v.13a.63.63,0,0,0,1.26,0v-.13a4.13,4.13,0,0,0-4.13-4.12"/>
        <path class="cls-1" d="M38.29,35A2.89,2.89,0,1,1,35.4,32.1,2.89,2.89,0,0,1,38.29,35m-7,0a4.15,4.15,0,1,0,4.14-4.14A4.15,4.15,0,0,0,31.26,35"/>
        <path class="cls-1" d="M38,39.55H32.81a4.13,4.13,0,0,0-4.12,4.12v.13a.63.63,0,1,0,1.25,0v-.13a2.88,2.88,0,0,1,2.87-2.87H38a2.88,2.88,0,0,1,2.87,2.87v.13a.63.63,0,1,0,1.25,0v-.13A4.13,4.13,0,0,0,38,39.55"/>
      </g>
    </g>
  </g>
</svg>
